<svg xmlns="http://www.w3.org/2000/svg" viewBox="0 0 400 225" width="400" height="225">
  <rect fill="#1a1a2e" width="400" height="225"/>
  <rect fill="#16213e" x="20" y="20" width="170" height="185" rx="8"/>
  <rect fill="#16213e" x="210" y="20" width="170" height="185" rx="8"/>
  
  <!-- Left menu section -->
  <text fill="#e94560" font-family="Arial, sans-serif" font-size="14" font-weight="bold" x="40" y="50">APPETIZERS</text>
  <rect fill="#0f3460" x="40" y="60" width="130" height="8" rx="2"/>
  <rect fill="#0f3460" x="40" y="75" width="100" height="8" rx="2"/>
  <rect fill="#0f3460" x="40" y="90" width="120" height="8" rx="2"/>
  
  <text fill="#e94560" font-family="Arial, sans-serif" font-size="14" font-weight="bold" x="40" y="120">MAIN COURSES</text>
  <rect fill="#0f3460" x="40" y="130" width="130" height="8" rx="2"/>
  <rect fill="#0f3460" x="40" y="145" width="110" height="8" rx="2"/>
  <rect fill="#0f3460" x="40" y="160" width="125" height="8" rx="2"/>
  
  <!-- Right menu section -->
  <text fill="#e94560" font-family="Arial, sans-serif" font-size="14" font-weight="bold" x="230" y="50">DESSERTS</text>
  <rect fill="#0f3460" x="230" y="60" width="130" height="8" rx="2"/>
  <rect fill="#0f3460" x="230" y="75" width="100" height="8" rx="2"/>
  
  <text fill="#e94560" font-family="Arial, sans-serif" font-size="14" font-weight="bold" x="230" y="110">BEVERAGES</text>
  <rect fill="#0f3460" x="230" y="120" width="130" height="8" rx="2"/>
  <rect fill="#0f3460" x="230" y="135" width="90" height="8" rx="2"/>
  <rect fill="#0f3460" x="230" y="150" width="115" height="8" rx="2"/>
  
  <!-- Restaurant icon -->
  <circle fill="#e94560" cx="200" cy="195" r="12"/>
  <text fill="white" font-family="Arial, sans-serif" font-size="10" text-anchor="middle" x="200" y="199">🍽</text>
</svg>
