<svg xmlns="http://www.w3.org/2000/svg" viewBox="0 0 400 225" width="400" height="225">
  <rect fill="#ff6b6b" width="400" height="225"/>
  <rect fill="white" x="30" y="30" width="340" height="165" rx="8"/>
  
  <!-- Sale banner -->
  <rect fill="#ffd93d" x="60" y="50" width="280" height="40" rx="5"/>
  <text fill="#ff6b6b" font-family="Arial, sans-serif" font-size="28" font-weight="bold" text-anchor="middle" x="200" y="80">SALE 50% OFF</text>
  
  <!-- Product placeholders -->
  <rect fill="#f0f0f0" x="60" y="105" width="80" height="60" rx="4"/>
  <rect fill="#e0e0e0" x="70" y="115" width="60" height="35" rx="2"/>
  <rect fill="#ff6b6b" x="65" y="155" width="70" height="8" rx="2"/>
  
  <rect fill="#f0f0f0" x="160" y="105" width="80" height="60" rx="4"/>
  <rect fill="#e0e0e0" x="170" y="115" width="60" height="35" rx="2"/>
  <rect fill="#ff6b6b" x="165" y="155" width="70" height="8" rx="2"/>
  
  <rect fill="#f0f0f0" x="260" y="105" width="80" height="60" rx="4"/>
  <rect fill="#e0e0e0" x="270" y="115" width="60" height="35" rx="2"/>
  <rect fill="#ff6b6b" x="265" y="155" width="70" height="8" rx="2"/>
  
  <!-- Call to action -->
  <text fill="#333" font-family="Arial, sans-serif" font-size="10" text-anchor="middle" x="200" y="185">Limited Time Only • Shop Now</text>
  
  <!-- Corner badges -->
  <polygon fill="#ffd93d" points="0,0 80,0 0,80"/>
  <text fill="#ff6b6b" font-family="Arial, sans-serif" font-size="11" font-weight="bold" transform="rotate(-45 40 40)" x="5" y="50">NEW!</text>
</svg>
